solid OpenSCAD_Model
  facet normal -1 0 0
    outer loop
      vertex 0 6.5 0
      vertex 0 5 1
      vertex 0 6.5 1.5
    endloop
  endfacet
  facet normal -1 0 0
    outer loop
      vertex 0 6.5 0
      vertex 0 1.5 1
      vertex 0 5 1
    endloop
  endfacet
  facet normal -1 0 0
    outer loop
      vertex 0 0 0
      vertex 0 1.5 1
      vertex 0 6.5 0
    endloop
  endfacet
  facet normal -1 0 0
    outer loop
      vertex 0 0 1.5
      vertex 0 1.5 1
      vertex 0 0 0
    endloop
  endfacet
  facet normal -1 0 0
    outer loop
      vertex 0 1.5 1
      vertex 0 0 1.5
      vertex 0 1.5 1.5
    endloop
  endfacet
  facet normal -1 -0 0
    outer loop
      vertex 0 6.5 1.5
      vertex 0 5 1
      vertex 0 5 1.5
    endloop
  endfacet
  facet normal 0 0 1
    outer loop
      vertex 26 6.5 1
      vertex 25 5 1
      vertex 26 0 1
    endloop
  endfacet
  facet normal -0 0 1
    outer loop
      vertex 5 6.5 1
      vertex 25 5 1
      vertex 26 6.5 1
    endloop
  endfacet
  facet normal 0 0 1
    outer loop
      vertex 25 5 1
      vertex 5 6.5 1
      vertex 5 5 1
    endloop
  endfacet
  facet normal -0 0 1
    outer loop
      vertex 25 1.5 1
      vertex 26 0 1
      vertex 25 5 1
    endloop
  endfacet
  facet normal 0 0 1
    outer loop
      vertex 5 0 1
      vertex 25 1.5 1
      vertex 5 1.5 1
    endloop
  endfacet
  facet normal 0 0 1
    outer loop
      vertex 25 1.5 1
      vertex 5 0 1
      vertex 26 0 1
    endloop
  endfacet
  facet normal 0 0 1
    outer loop
      vertex 49 6.5 1
      vertex 29 5 1
      vertex 49 5 1
    endloop
  endfacet
  facet normal 0 0 1
    outer loop
      vertex 29 5 1
      vertex 28 6.5 1
      vertex 29 1.5 1
    endloop
  endfacet
  facet normal -0 0 1
    outer loop
      vertex 28 6.5 1
      vertex 29 5 1
      vertex 49 6.5 1
    endloop
  endfacet
  facet normal -0 0 1
    outer loop
      vertex 29 1.5 1
      vertex 49 0 1
      vertex 49 1.5 1
    endloop
  endfacet
  facet normal 0 0 1
    outer loop
      vertex 29 1.5 1
      vertex 28 0 1
      vertex 49 0 1
    endloop
  endfacet
  facet normal 0 0 1
    outer loop
      vertex 28 0 1
      vertex 29 1.5 1
      vertex 28 6.5 1
    endloop
  endfacet
  facet normal -0 0 1
    outer loop
      vertex 52.5 5 1
      vertex 54 1.5 1
      vertex 54 5 1
    endloop
  endfacet
  facet normal 0 0 1
    outer loop
      vertex 54 1.5 1
      vertex 52.5 5 1
      vertex 52.5 1.5 1
    endloop
  endfacet
  facet normal -0 0 1
    outer loop
      vertex 0 5 1
      vertex 1.5 1.5 1
      vertex 1.5 5 1
    endloop
  endfacet
  facet normal 0 0 1
    outer loop
      vertex 1.5 1.5 1
      vertex 0 5 1
      vertex 0 1.5 1
    endloop
  endfacet
  facet normal 1 0 0
    outer loop
      vertex 54 1.5 1.5
      vertex 54 0 1.5
      vertex 54 1.5 1
    endloop
  endfacet
  facet normal 1 0 0
    outer loop
      vertex 54 5 1
      vertex 54 6.5 1.5
      vertex 54 5 1.5
    endloop
  endfacet
  facet normal 1 0 0
    outer loop
      vertex 54 6.5 1.5
      vertex 54 5 1
      vertex 54 6.5 0
    endloop
  endfacet
  facet normal 1 -0 0
    outer loop
      vertex 54 1.5 1
      vertex 54 6.5 0
      vertex 54 5 1
    endloop
  endfacet
  facet normal 1 0 0
    outer loop
      vertex 54 1.5 1
      vertex 54 0 0
      vertex 54 6.5 0
    endloop
  endfacet
  facet normal 1 0 0
    outer loop
      vertex 54 0 0
      vertex 54 1.5 1
      vertex 54 0 1.5
    endloop
  endfacet
  facet normal 0 1 0
    outer loop
      vertex 54 6.5 1.5
      vertex 49 6.5 1
      vertex 49 6.5 1.5
    endloop
  endfacet
  facet normal 0 1 0
    outer loop
      vertex 54 6.5 0
      vertex 28 6.5 1
      vertex 49 6.5 1
    endloop
  endfacet
  facet normal 0 1 0
    outer loop
      vertex 28 6.5 1
      vertex 54 6.5 0
      vertex 26 6.5 1
    endloop
  endfacet
  facet normal 0 1 0
    outer loop
      vertex 0 6.5 0
      vertex 26 6.5 1
      vertex 54 6.5 0
    endloop
  endfacet
  facet normal 0 1 -0
    outer loop
      vertex 54 6.5 0
      vertex 49 6.5 1
      vertex 54 6.5 1.5
    endloop
  endfacet
  facet normal 0 1 -0
    outer loop
      vertex 28 6.5 1
      vertex 26 6.5 1.5
      vertex 28 6.5 1.5
    endloop
  endfacet
  facet normal 0 1 0
    outer loop
      vertex 26 6.5 1.5
      vertex 28 6.5 1
      vertex 26 6.5 1
    endloop
  endfacet
  facet normal 0 1 -0
    outer loop
      vertex 5 6.5 1
      vertex 0 6.5 1.5
      vertex 5 6.5 1.5
    endloop
  endfacet
  facet normal 0 1 0
    outer loop
      vertex 5 6.5 1
      vertex 0 6.5 0
      vertex 0 6.5 1.5
    endloop
  endfacet
  facet normal 0 1 0
    outer loop
      vertex 26 6.5 1
      vertex 0 6.5 0
      vertex 5 6.5 1
    endloop
  endfacet
  facet normal 0 0 -1
    outer loop
      vertex 54 0 0
      vertex 52.5 1.5 0
      vertex 54 6.5 0
    endloop
  endfacet
  facet normal 0 0 -1
    outer loop
      vertex 54 0 0
      vertex 29 1.5 0
      vertex 52.5 1.5 0
    endloop
  endfacet
  facet normal 0 0 -1
    outer loop
      vertex 29 1.5 0
      vertex 25 1.5 0
      vertex 29 5 0
    endloop
  endfacet
  facet normal 0 0 -1
    outer loop
      vertex 54 0 0
      vertex 25 1.5 0
      vertex 29 1.5 0
    endloop
  endfacet
  facet normal 0 0 -1
    outer loop
      vertex 0 0 0
      vertex 25 1.5 0
      vertex 54 0 0
    endloop
  endfacet
  facet normal -0 0 -1
    outer loop
      vertex 1.5 1.5 0
      vertex 0 0 0
      vertex 1.5 5 0
    endloop
  endfacet
  facet normal -0 0 -1
    outer loop
      vertex 25 1.5 0
      vertex 0 0 0
      vertex 1.5 1.5 0
    endloop
  endfacet
  facet normal 0 0 -1
    outer loop
      vertex 52.5 5 0
      vertex 54 6.5 0
      vertex 52.5 1.5 0
    endloop
  endfacet
  facet normal 0 0 -1
    outer loop
      vertex 29 5 0
      vertex 54 6.5 0
      vertex 52.5 5 0
    endloop
  endfacet
  facet normal 0 0 -1
    outer loop
      vertex 25 5 0
      vertex 29 5 0
      vertex 25 1.5 0
    endloop
  endfacet
  facet normal 0 0 -1
    outer loop
      vertex 25 5 0
      vertex 54 6.5 0
      vertex 29 5 0
    endloop
  endfacet
  facet normal 0 0 -1
    outer loop
      vertex 0 6.5 0
      vertex 25 5 0
      vertex 1.5 5 0
    endloop
  endfacet
  facet normal 0 0 -1
    outer loop
      vertex 25 5 0
      vertex 0 6.5 0
      vertex 54 6.5 0
    endloop
  endfacet
  facet normal 0 0 -1
    outer loop
      vertex 0 6.5 0
      vertex 1.5 5 0
      vertex 0 0 0
    endloop
  endfacet
  facet normal 0 -1 0
    outer loop
      vertex 0 0 1.5
      vertex 5 0 1
      vertex 5 0 1.5
    endloop
  endfacet
  facet normal 0 -1 0
    outer loop
      vertex 0 0 0
      vertex 26 0 1
      vertex 5 0 1
    endloop
  endfacet
  facet normal 0 -1 -0
    outer loop
      vertex 26 0 1
      vertex 0 0 0
      vertex 28 0 1
    endloop
  endfacet
  facet normal 0 -1 0
    outer loop
      vertex 54 0 0
      vertex 28 0 1
      vertex 0 0 0
    endloop
  endfacet
  facet normal 0 -1 0
    outer loop
      vertex 0 0 0
      vertex 5 0 1
      vertex 0 0 1.5
    endloop
  endfacet
  facet normal 0 -1 0
    outer loop
      vertex 26 0 1
      vertex 28 0 1.5
      vertex 26 0 1.5
    endloop
  endfacet
  facet normal 0 -1 -0
    outer loop
      vertex 28 0 1.5
      vertex 26 0 1
      vertex 28 0 1
    endloop
  endfacet
  facet normal 0 -1 0
    outer loop
      vertex 49 0 1
      vertex 54 0 1.5
      vertex 49 0 1.5
    endloop
  endfacet
  facet normal 0 -1 0
    outer loop
      vertex 49 0 1
      vertex 54 0 0
      vertex 54 0 1.5
    endloop
  endfacet
  facet normal 0 -1 0
    outer loop
      vertex 28 0 1
      vertex 54 0 0
      vertex 49 0 1
    endloop
  endfacet
  facet normal 1 -0 0
    outer loop
      vertex 1.5 1.5 1
      vertex 1.5 5 0
      vertex 1.5 5 1
    endloop
  endfacet
  facet normal 1 0 0
    outer loop
      vertex 1.5 5 0
      vertex 1.5 1.5 1
      vertex 1.5 1.5 0
    endloop
  endfacet
  facet normal -1 0 0
    outer loop
      vertex 52.5 1.5 0
      vertex 52.5 5 1
      vertex 52.5 5 0
    endloop
  endfacet
  facet normal -1 -0 0
    outer loop
      vertex 52.5 5 1
      vertex 52.5 1.5 0
      vertex 52.5 1.5 1
    endloop
  endfacet
  facet normal 0 -1 0
    outer loop
      vertex 29 5 0
      vertex 49 5 1
      vertex 29 5 1
    endloop
  endfacet
  facet normal 0 -1 0
    outer loop
      vertex 52.5 5 0
      vertex 49 5 1
      vertex 29 5 0
    endloop
  endfacet
  facet normal 0 -1 0
    outer loop
      vertex 49 5 1
      vertex 52.5 5 0
      vertex 52.5 5 1
    endloop
  endfacet
  facet normal 0 -1 0
    outer loop
      vertex 1.5 5 0
      vertex 5 5 1
      vertex 1.5 5 1
    endloop
  endfacet
  facet normal 0 -1 0
    outer loop
      vertex 25 5 0
      vertex 5 5 1
      vertex 1.5 5 0
    endloop
  endfacet
  facet normal 0 -1 0
    outer loop
      vertex 5 5 1
      vertex 25 5 0
      vertex 25 5 1
    endloop
  endfacet
  facet normal 0 1 -0
    outer loop
      vertex 52.5 1.5 0
      vertex 49 1.5 1
      vertex 52.5 1.5 1
    endloop
  endfacet
  facet normal 0 1 0
    outer loop
      vertex 29 1.5 0
      vertex 49 1.5 1
      vertex 52.5 1.5 0
    endloop
  endfacet
  facet normal 0 1 0
    outer loop
      vertex 49 1.5 1
      vertex 29 1.5 0
      vertex 29 1.5 1
    endloop
  endfacet
  facet normal 0 1 -0
    outer loop
      vertex 25 1.5 0
      vertex 5 1.5 1
      vertex 25 1.5 1
    endloop
  endfacet
  facet normal 0 1 0
    outer loop
      vertex 1.5 1.5 0
      vertex 5 1.5 1
      vertex 25 1.5 0
    endloop
  endfacet
  facet normal 0 1 0
    outer loop
      vertex 5 1.5 1
      vertex 1.5 1.5 0
      vertex 1.5 1.5 1
    endloop
  endfacet
  facet normal -1 0 0
    outer loop
      vertex 25 1.5 0
      vertex 25 5 1
      vertex 25 5 0
    endloop
  endfacet
  facet normal -1 -0 0
    outer loop
      vertex 25 5 1
      vertex 25 1.5 0
      vertex 25 1.5 1
    endloop
  endfacet
  facet normal 1 -0 0
    outer loop
      vertex 29 1.5 1
      vertex 29 5 0
      vertex 29 5 1
    endloop
  endfacet
  facet normal 1 0 0
    outer loop
      vertex 29 5 0
      vertex 29 1.5 1
      vertex 29 1.5 0
    endloop
  endfacet
  facet normal -0 0 1
    outer loop
      vertex 0 1.5 1.5
      vertex 5 0 1.5
      vertex 5 1.5 1.5
    endloop
  endfacet
  facet normal 0 0 1
    outer loop
      vertex 5 0 1.5
      vertex 0 1.5 1.5
      vertex 0 0 1.5
    endloop
  endfacet
  facet normal 1 -0 0
    outer loop
      vertex 5 0 1.5
      vertex 5 1.5 1
      vertex 5 1.5 1.5
    endloop
  endfacet
  facet normal 1 0 0
    outer loop
      vertex 5 1.5 1
      vertex 5 0 1.5
      vertex 5 0 1
    endloop
  endfacet
  facet normal 0 1 0
    outer loop
      vertex 1.5 1.5 1
      vertex 5 1.5 1.5
      vertex 5 1.5 1
    endloop
  endfacet
  facet normal 0 1 0
    outer loop
      vertex 5 1.5 1.5
      vertex 1.5 1.5 1
      vertex 0 1.5 1.5
    endloop
  endfacet
  facet normal 0 1 0
    outer loop
      vertex 0 1.5 1.5
      vertex 1.5 1.5 1
      vertex 0 1.5 1
    endloop
  endfacet
  facet normal -1 0 0
    outer loop
      vertex 49 0 1
      vertex 49 1.5 1.5
      vertex 49 1.5 1
    endloop
  endfacet
  facet normal -1 -0 0
    outer loop
      vertex 49 1.5 1.5
      vertex 49 0 1
      vertex 49 0 1.5
    endloop
  endfacet
  facet normal -0 0 1
    outer loop
      vertex 49 1.5 1.5
      vertex 54 0 1.5
      vertex 54 1.5 1.5
    endloop
  endfacet
  facet normal 0 0 1
    outer loop
      vertex 54 0 1.5
      vertex 49 1.5 1.5
      vertex 49 0 1.5
    endloop
  endfacet
  facet normal 0 1 0
    outer loop
      vertex 52.5 1.5 1
      vertex 54 1.5 1.5
      vertex 54 1.5 1
    endloop
  endfacet
  facet normal 0 1 0
    outer loop
      vertex 54 1.5 1.5
      vertex 52.5 1.5 1
      vertex 49 1.5 1.5
    endloop
  endfacet
  facet normal 0 1 0
    outer loop
      vertex 49 1.5 1.5
      vertex 52.5 1.5 1
      vertex 49 1.5 1
    endloop
  endfacet
  facet normal -0 0 1
    outer loop
      vertex 0 6.5 1.5
      vertex 5 5 1.5
      vertex 5 6.5 1.5
    endloop
  endfacet
  facet normal 0 0 1
    outer loop
      vertex 5 5 1.5
      vertex 0 6.5 1.5
      vertex 0 5 1.5
    endloop
  endfacet
  facet normal 1 -0 0
    outer loop
      vertex 5 5 1.5
      vertex 5 6.5 1
      vertex 5 6.5 1.5
    endloop
  endfacet
  facet normal 1 0 0
    outer loop
      vertex 5 6.5 1
      vertex 5 5 1.5
      vertex 5 5 1
    endloop
  endfacet
  facet normal 0 -1 0
    outer loop
      vertex 1.5 5 1
      vertex 0 5 1.5
      vertex 0 5 1
    endloop
  endfacet
  facet normal 0 -1 0
    outer loop
      vertex 0 5 1.5
      vertex 1.5 5 1
      vertex 5 5 1.5
    endloop
  endfacet
  facet normal 0 -1 -0
    outer loop
      vertex 5 5 1.5
      vertex 1.5 5 1
      vertex 5 5 1
    endloop
  endfacet
  facet normal -1 0 0
    outer loop
      vertex 49 5 1
      vertex 49 6.5 1.5
      vertex 49 6.5 1
    endloop
  endfacet
  facet normal -1 -0 0
    outer loop
      vertex 49 6.5 1.5
      vertex 49 5 1
      vertex 49 5 1.5
    endloop
  endfacet
  facet normal -0 0 1
    outer loop
      vertex 49 6.5 1.5
      vertex 54 5 1.5
      vertex 54 6.5 1.5
    endloop
  endfacet
  facet normal 0 0 1
    outer loop
      vertex 54 5 1.5
      vertex 49 6.5 1.5
      vertex 49 5 1.5
    endloop
  endfacet
  facet normal 0 -1 0
    outer loop
      vertex 52.5 5 1
      vertex 49 5 1.5
      vertex 49 5 1
    endloop
  endfacet
  facet normal 0 -1 0
    outer loop
      vertex 49 5 1.5
      vertex 52.5 5 1
      vertex 54 5 1.5
    endloop
  endfacet
  facet normal 0 -1 -0
    outer loop
      vertex 54 5 1.5
      vertex 52.5 5 1
      vertex 54 5 1
    endloop
  endfacet
  facet normal -1 0 0
    outer loop
      vertex 26 0 1
      vertex 26 6.5 1.5
      vertex 26 6.5 1
    endloop
  endfacet
  facet normal -1 -0 0
    outer loop
      vertex 26 6.5 1.5
      vertex 26 0 1
      vertex 26 0 1.5
    endloop
  endfacet
  facet normal -0 0 1
    outer loop
      vertex 26 6.5 1.5
      vertex 28 0 1.5
      vertex 28 6.5 1.5
    endloop
  endfacet
  facet normal 0 0 1
    outer loop
      vertex 28 0 1.5
      vertex 26 6.5 1.5
      vertex 26 0 1.5
    endloop
  endfacet
  facet normal 1 -0 0
    outer loop
      vertex 28 0 1.5
      vertex 28 6.5 1
      vertex 28 6.5 1.5
    endloop
  endfacet
  facet normal 1 0 0
    outer loop
      vertex 28 6.5 1
      vertex 28 0 1.5
      vertex 28 0 1
    endloop
  endfacet
endsolid OpenSCAD_Model
